<svg width="20" height="20" viewBox="0 0 20 20" fill="none" xmlns="http://www.w3.org/2000/svg">
<path fill-rule="evenodd" clip-rule="evenodd" d="M9.99992 1.66663C10.4419 1.66663 10.8659 1.84222 11.1784 2.15478C11.491 2.46734 11.6666 2.89127 11.6666 3.33329C11.6666 3.77532 11.491 4.19924 11.1784 4.5118C10.8659 4.82436 10.4419 4.99996 9.99992 4.99996C9.55789 4.99996 9.13397 4.82436 8.82141 4.5118C8.50885 4.19924 8.33325 3.77532 8.33325 3.33329C8.33325 2.89127 8.50885 2.46734 8.82141 2.15478C9.13397 1.84222 9.55789 1.66663 9.99992 1.66663Z" fill="black"/>
<path fill-rule="evenodd" clip-rule="evenodd" d="M9.99992 8.33325C10.4419 8.33325 10.8659 8.50885 11.1784 8.82141C11.491 9.13397 11.6666 9.55789 11.6666 9.99992C11.6666 10.4419 11.491 10.8659 11.1784 11.1784C10.8659 11.491 10.4419 11.6666 9.99992 11.6666C9.55789 11.6666 9.13397 11.491 8.82141 11.1784C8.50885 10.8659 8.33325 10.4419 8.33325 9.99992C8.33325 9.55789 8.50885 9.13397 8.82141 8.82141C9.13397 8.50885 9.55789 8.33325 9.99992 8.33325Z" fill="black"/>
<path fill-rule="evenodd" clip-rule="evenodd" d="M9.99992 15C10.4419 15 10.8659 15.1756 11.1784 15.4882C11.491 15.8007 11.6666 16.2246 11.6666 16.6667C11.6666 17.1087 11.491 17.5326 11.1784 17.8452C10.8659 18.1577 10.4419 18.3333 9.99992 18.3333C9.55789 18.3333 9.13397 18.1577 8.82141 17.8452C8.50885 17.5326 8.33325 17.1087 8.33325 16.6667C8.33325 16.2246 8.50885 15.8007 8.82141 15.4882C9.13397 15.1756 9.55789 15 9.99992 15Z" fill="black"/>
</svg>
