<svg width="20" height="20" viewBox="0 0 20 20" fill="none" xmlns="http://www.w3.org/2000/svg">
<g clip-path="url(#clip0_617_240)">
<path d="M11.6667 1.66663H8.33333C7.8731 1.66663 7.5 2.03972 7.5 2.49996V5.83329C7.5 6.29353 7.8731 6.66663 8.33333 6.66663H11.6667C12.1269 6.66663 12.5 6.29353 12.5 5.83329V2.49996C12.5 2.03972 12.1269 1.66663 11.6667 1.66663Z" stroke="#7C7B84" stroke-opacity="0.95" stroke-width="1.5" stroke-linecap="round" stroke-linejoin="round"/>
<path d="M3.33325 15V11.6667C3.33325 11.2065 3.70635 10.8334 4.16659 10.8334H15.8333C16.2935 10.8334 16.6666 11.2065 16.6666 11.6667V15" stroke="#7C7B84" stroke-opacity="0.95" stroke-width="1.5" stroke-linecap="round" stroke-linejoin="round"/>
<path d="M3.33341 18.3333C4.25389 18.3333 5.00008 17.5871 5.00008 16.6667C5.00008 15.7462 4.25389 15 3.33341 15C2.41294 15 1.66675 15.7462 1.66675 16.6667C1.66675 17.5871 2.41294 18.3333 3.33341 18.3333Z" stroke="#7C7B84" stroke-opacity="0.95" stroke-width="1.5" stroke-linecap="round" stroke-linejoin="round"/>
<path d="M16.6667 18.3333C17.5871 18.3333 18.3333 17.5871 18.3333 16.6667C18.3333 15.7462 17.5871 15 16.6667 15C15.7462 15 15 15.7462 15 16.6667C15 17.5871 15.7462 18.3333 16.6667 18.3333Z" stroke="#7C7B84" stroke-opacity="0.95" stroke-width="1.5" stroke-linecap="round" stroke-linejoin="round"/>
<path d="M9.99992 18.3333C10.9204 18.3333 11.6666 17.5871 11.6666 16.6667C11.6666 15.7462 10.9204 15 9.99992 15C9.07944 15 8.33325 15.7462 8.33325 16.6667C8.33325 17.5871 9.07944 18.3333 9.99992 18.3333Z" stroke="#7C7B84" stroke-opacity="0.95" stroke-width="1.5" stroke-linecap="round" stroke-linejoin="round"/>
<path d="M10 6.66663V15" stroke="#7C7B84" stroke-opacity="0.95" stroke-width="1.5" stroke-linecap="round" stroke-linejoin="round"/>
</g>
<defs>
<clipPath id="clip0_617_240">
<rect width="20" height="20" fill="white"/>
</clipPath>
</defs>
</svg>
