<svg width="20" height="20" viewBox="0 0 20 20" fill="none" xmlns="http://www.w3.org/2000/svg">
<path d="M10.6008 4.16914L9.37914 4.16664C6.59247 4.15997 4.1733 6.42414 4.15414 9.16664V12.325C4.15414 12.9833 4.0708 13.6258 3.71164 14.1733L3.47247 14.5383C3.1083 15.0916 3.49997 15.8333 4.15414 15.8333H15.8458C16.5 15.8333 16.8908 15.0916 16.5275 14.5383L16.2883 14.1733C15.93 13.6258 15.8458 12.9825 15.8458 12.3241V9.16747C15.8125 6.42414 13.3875 4.17581 10.6008 4.16914Z" stroke="#7C7B84" stroke-width="1.25" stroke-linecap="round" stroke-linejoin="round"/>
<path d="M12.5 15.8334C12.5 16.4964 12.2366 17.1323 11.7678 17.6011C11.2989 18.07 10.663 18.3334 10 18.3334C9.33696 18.3334 8.70107 18.07 8.23223 17.6011C7.76339 17.1323 7.5 16.4964 7.5 15.8334" stroke="#7C7B84" stroke-width="1.25" stroke-linecap="round" stroke-linejoin="round"/>
<path d="M9.99992 1.66663C10.4419 1.66663 10.8659 1.84222 11.1784 2.15478C11.491 2.46734 11.6666 2.89127 11.6666 3.33329V4.16663H8.33325V3.33329C8.33325 2.89127 8.50885 2.46734 8.82141 2.15478C9.13397 1.84222 9.55789 1.66663 9.99992 1.66663Z" stroke="#7C7B84" stroke-width="1.25" stroke-linecap="round" stroke-linejoin="round"/>
</svg>
